<?xml version="1.0" encoding="UTF-8"?>
<svg version="1.1" xmlns="http://www.w3.org/2000/svg" width="288" height="288">
<path d="M0 0 C22.30260503 19.68708559 37.06659659 45.30884304 44.46875 73.9921875 C44.64664062 74.67442383 44.82453125 75.35666016 45.0078125 76.05957031 C53.70932535 111.46989345 46.36726472 151.82047652 27.83691406 182.81347656 C6.99366945 216.00496744 -24.6181759 239.20816838 -62.53125 248.9921875 C-63.21348633 249.17007812 -63.89572266 249.34796875 -64.59863281 249.53125 C-100.00895595 258.23276285 -140.35953902 250.89070222 -171.35253906 232.36035156 C-204.54402994 211.51710695 -227.74723088 179.9052616 -237.53125 141.9921875 C-237.70914063 141.30995117 -237.88703125 140.62771484 -238.0703125 139.92480469 C-246.77182535 104.51448155 -239.42976472 64.16389848 -220.89941406 33.17089844 C-200.05616945 -0.02059244 -168.4443241 -23.22379338 -130.53125 -33.0078125 C-129.84901367 -33.18570313 -129.16677734 -33.36359375 -128.46386719 -33.546875 C-82.96990531 -44.7262786 -34.79318846 -29.93696429 0 0 Z " fill="#5CB4E3" transform="translate(240.53125,36.0078125)"/>
<path d="M0 0 C4.43261867 3.61846422 8.28090922 7.30998787 11.984375 11.6640625 C14.42998734 14.49831866 16.96138539 17.24944089 19.5 20 C22.51965706 23.27818066 25.52203151 26.56582128 28.4375 29.9375 C31.54964124 33.52958591 34.76872086 37.01551992 38 40.5 C41.78631688 44.58301022 45.51767049 48.69769717 49.16015625 52.91015625 C52.03265465 56.17297291 54.98862684 59.35916146 57.93359375 62.55639648 C61.23480309 66.14703477 64.47382624 69.78384753 67.66015625 73.4765625 C68.72887904 74.69172835 69.8557106 75.8557106 71 77 C73.4046759 104.8942404 58.05023264 136.00684022 40.72265625 156.72265625 C38.53713257 159.2077772 36.29000761 161.61111468 34 164 C33.24332031 164.81984375 32.48664063 165.6396875 31.70703125 166.484375 C16.4785788 182.48294494 -3.88995901 193.64329617 -25.10546875 199.4765625 C-26.75912582 199.9334492 -28.39706347 200.4464842 -30.03125 200.96875 C-32.77396198 201.61210219 -34.30802151 201.84185509 -37 201 C-40.09619363 198.22108416 -42.37393894 195.03674506 -44.76123047 191.64648438 C-47.35793076 188.19513499 -50.45227029 185.15478361 -53.45874023 182.06176758 C-57.74288504 177.52729582 -57.74288504 177.52729582 -58 174 C-57.67 173.67 -57.34 173.34 -57 173 C-56.95919217 171.00041636 -56.95745644 168.99954746 -57 167 C-57.66 167 -58.32 167 -59 167 C-59 168.32 -59 169.64 -59 171 C-60.32 171 -61.64 171 -63 171 C-63.33 172.32 -63.66 173.64 -64 175 C-67.63 175 -71.26 175 -75 175 C-74.33333333 173.66666667 -73.66666667 172.33333333 -73 171 C-71.68 171 -70.36 171 -69 171 C-69.66868314 167.88667752 -69.66868314 167.88667752 -72.0625 166.8125 C-72.701875 166.544375 -73.34125 166.27625 -74 166 C-71.69 166.33 -69.38 166.66 -67 167 C-67.825 166.05125 -68.65 165.1025 -69.5 164.125 C-72 161.25 -72 161.25 -72 159 C-72.66 158.67 -73.32 158.34 -74 158 C-72.68 157.67 -71.36 157.34 -70 157 C-70 155.35 -70 153.7 -70 152 C-71.32 152 -72.64 152 -74 152 C-74.33 153.65 -74.66 155.3 -75 157 C-77 154 -77 154 -78 152 C-78.33 152 -78.66 152 -79 152 C-79.66 154.31 -80.32 156.62 -81 159 C-81.5775 158.814375 -82.155 158.62875 -82.75 158.4375 C-85.20692525 157.95976454 -86.64397534 158.24270636 -89 159 C-89 159.66 -89 160.32 -89 161 C-89.99 160.67 -90.98 160.34 -92 160 C-91.34 160 -90.68 160 -90 160 C-90 159.34 -90 158.68 -90 158 C-88.02 157.01 -88.02 157.01 -86 156 C-86 154.35 -86 152.7 -86 151 C-84.68 150.67 -83.36 150.34 -82 150 C-82.4125 149.53851563 -82.825 149.07703125 -83.25 148.6015625 C-84.47835757 147.21417649 -85.69623835 145.81747765 -86.90625 144.4140625 C-88.33939533 142.76166733 -89.79932976 141.13223448 -91.28125 139.5234375 C-96.86309899 133.17506699 -96.86309899 133.17506699 -97.28125 129.5859375 C-97 127.375 -97 127.375 -96 124 C-97.65 124 -99.3 124 -101 124 C-101 124.66 -101 125.32 -101 126 C-100.01 126 -99.02 126 -98 126 C-98.33 127.32 -98.66 128.64 -99 130 C-100.66611905 130.042721 -102.33382885 130.04063832 -104 130 C-105 129 -105 129 -105.3125 125.75 C-104.95131633 121.41579598 -104.22368016 119.8751742 -101 117 C-98.25 116.6875 -98.25 116.6875 -96 117 C-96 116.34 -96 115.68 -96 115 C-101.71863052 116.28139327 -101.71863052 116.28139327 -106 120 C-110.40240876 118.36238901 -113.05352961 115.01781644 -116.125 111.625 C-116.66253906 111.0475 -117.20007813 110.47 -117.75390625 109.875 C-120.31147426 107.08144692 -122.57629069 104.56806161 -124 101 C-122.87851563 100.65388672 -122.87851563 100.65388672 -121.734375 100.30078125 C-114.10822284 97.8983429 -114.10822284 97.8983429 -109 92 C-106.83306633 85.499199 -108.1634058 80.90011594 -111 75 C-112 72 -112 72 -110.87597656 69.47216797 C-110.30331055 68.48877441 -109.73064453 67.50538086 -109.140625 66.4921875 C-108.51929687 65.42355469 -107.89796875 64.35492188 -107.2578125 63.25390625 C-106.59523438 62.13886719 -105.93265625 61.02382812 -105.25 59.875 C-104.60289063 58.75222656 -103.95578125 57.62945312 -103.2890625 56.47265625 C-98.38547932 48.12849311 -98.38547932 48.12849311 -95 47 C-93.37447524 47.00551025 -91.74884724 47.05096441 -90.125 47.125 C-85.84153706 47.16858175 -83.4404205 46.73209864 -80 44 C-78.66842465 42.99766031 -77.33534203 41.99731612 -76 41 C-72.86734091 42.40201033 -69.77695353 43.88046291 -66.6875 45.375 C-65.80642578 45.76816406 -64.92535156 46.16132812 -64.01757812 46.56640625 C-57.60640664 49.73542637 -57.60640664 49.73542637 -55.81298828 53.4753418 C-55.05078125 56.16015625 -55.05078125 56.16015625 -54.55981445 58.71118164 C-53.71186661 62.17804211 -51.75662583 63.86361498 -49 66 C-43.37965464 67.87344845 -38.28161813 67.56535738 -33 65 C-32.01 64.67 -31.02 64.34 -30 64 C-27.63331306 59.79255655 -26.88976626 54.79092784 -27 50 C-27.93704257 47.9697411 -28.92925408 45.96303418 -30 44 C-29.60762019 40.28760037 -28.41058443 37.58441501 -26.53125 34.390625 C-26.04269531 33.55402344 -25.55414063 32.71742187 -25.05078125 31.85546875 C-24.53902344 30.99566406 -24.02726562 30.13585937 -23.5 29.25 C-22.98824219 28.37472656 -22.47648437 27.49945313 -21.94921875 26.59765625 C-18.17569314 20.17569314 -18.17569314 20.17569314 -17 19 C-15.58809135 18.70536617 -14.1702098 18.43909346 -12.75 18.1875 C-8.58796516 17.28760058 -5.9883866 16.16950094 -3 13 C-0.72289233 8.9012062 -0.46755704 4.59764425 0 0 Z " fill="#509EC7" transform="translate(205,72)"/>
<path d="M0 0 C22.30260503 19.68708559 37.06659659 45.30884304 44.46875 73.9921875 C44.64664062 74.67442383 44.82453125 75.35666016 45.0078125 76.05957031 C53.70932535 111.46989345 46.36726472 151.82047652 27.83691406 182.81347656 C6.99366945 216.00496744 -24.6181759 239.20816838 -62.53125 248.9921875 C-63.21348633 249.17007812 -63.89572266 249.34796875 -64.59863281 249.53125 C-100.00895595 258.23276285 -140.35953902 250.89070222 -171.35253906 232.36035156 C-204.54402994 211.51710695 -227.74723088 179.9052616 -237.53125 141.9921875 C-237.70914063 141.30995117 -237.88703125 140.62771484 -238.0703125 139.92480469 C-246.77182535 104.51448155 -239.42976472 64.16389848 -220.89941406 33.17089844 C-200.05616945 -0.02059244 -168.4443241 -23.22379338 -130.53125 -33.0078125 C-129.84901367 -33.18570313 -129.16677734 -33.36359375 -128.46386719 -33.546875 C-82.96990531 -44.7262786 -34.79318846 -29.93696429 0 0 Z M-194.65625 19.1796875 C-217.7608384 45.58493138 -230.81474186 79.79515075 -228.53125 114.9921875 C-226.87896573 135.81020441 -221.68933017 154.74034527 -211.53125 172.9921875 C-211.00402344 173.94738281 -210.47679687 174.90257812 -209.93359375 175.88671875 C-192.04917954 206.93406182 -162.35092639 227.16358708 -128.41015625 236.80078125 C-118.34071466 239.38991816 -108.60213057 240.32964834 -98.21875 240.2421875 C-97.02886475 240.23396973 -95.83897949 240.22575195 -94.61303711 240.21728516 C-60.30675431 239.78139687 -29.27220799 226.70909922 -4.53125 202.9921875 C-3.71140625 202.23550781 -2.8915625 201.47882813 -2.046875 200.69921875 C14.12880146 185.3021851 24.69099205 165.17968773 30.91015625 143.90039062 C31.41144037 142.18796199 31.9531858 140.48750055 32.5 138.7890625 C41.23235612 104.56386028 34.22529284 68.9604784 16.6171875 38.87011719 C-0.38941705 11.06084801 -29.41482301 -11.47561512 -61.11523438 -19.67626953 C-110.30272036 -31.12133121 -159.4484439 -17.91921719 -194.65625 19.1796875 Z " fill="#FDFEFE" transform="translate(240.53125,36.0078125)"/>
<path d="M0 0 C4.14250101 2.52762773 7.16316683 5.46856723 9 10 C9.45334816 15.62151717 9.18933562 19.16100802 6 24 C2.98462147 27.19275373 0.95521375 28.05314913 -3.265625 28.4609375 C-6.3847993 29.11747287 -7.70812146 29.67851501 -9.87255859 32.0625 C-11.61730484 34.76984724 -13.14216635 37.51606622 -14.625 40.375 C-15.43517578 41.81359375 -15.43517578 41.81359375 -16.26171875 43.28125 C-19.13732305 47.95334389 -19.13732305 47.95334389 -19.70849609 53.17041016 C-19.00150505 55.09151406 -19.00150505 55.09151406 -17.875 57.1875 C-16.30377946 62.23785173 -17.13888702 67.11375253 -19.3125 71.875 C-22.03750989 75.30649393 -24.61314005 77.3907139 -29 78 C-34.36659893 78.34073644 -37.67335214 78.50809286 -42 75 C-45.53333452 71.46666548 -46.84384781 70.12002688 -47.54296875 65.10546875 C-48.18562207 62.3221305 -48.6468431 61.27179952 -50.93725586 59.5090332 C-53.45782405 58.19458582 -55.99239554 57.07211863 -58.625 56 C-59.5221875 55.60683594 -60.419375 55.21367188 -61.34375 54.80859375 C-63.55246567 53.84521776 -65.76924103 52.91087735 -68 52 C-68.763125 52.804375 -69.52625 53.60875 -70.3125 54.4375 C-73 57 -73 57 -76 58 C-76.87156738 57.8966333 -77.74313477 57.7932666 -78.64111328 57.68676758 C-82.03834377 57.29218917 -84.65459218 57.24384618 -88 58 C-91.60499747 61.36026981 -93.63998891 65.3349784 -95.875 69.6875 C-96.50535156 70.79029297 -97.13570312 71.89308594 -97.78515625 73.02929688 C-101.27303774 78.57178 -101.27303774 78.57178 -101.22314453 84.71020508 C-100.81950684 85.4658374 -100.41586914 86.22146973 -100 87 C-98.02260857 91.17449302 -97.59427671 94.37475444 -98 99 C-99.98844117 104.33739473 -102.90667648 107.45333824 -108 110 C-112.9252115 110.54035594 -116.86941718 110.54435469 -121.375 108.375 C-125.61960874 104.53463971 -128.20306851 101.38235726 -128.5 95.5625 C-128.25861435 90.93723942 -127.07620543 87.49362564 -124 84 C-120.41994365 81.01813028 -117.81124966 80.02026098 -113.08984375 79.90234375 C-110.47188759 79.60978065 -109.35508633 79.36420294 -107.49755859 77.45898438 C-106.12554663 75.33893259 -104.95162391 73.19110786 -103.8125 70.9375 C-103.0075986 69.44602681 -102.20161153 67.95513901 -101.39453125 66.46484375 C-101.00861816 65.72476074 -100.62270508 64.98467773 -100.22509766 64.22216797 C-98.61106707 61.2945262 -96.74736464 58.5608795 -94.8269043 55.82641602 C-93.76192152 53.4741467 -94.1515291 52.38866707 -95 50 C-96.15984353 46.26272642 -96.3367036 42.90576175 -96 39 C-93.72051347 34.69430322 -91.18976444 31.51385866 -87 29 C-82.34125139 27.71906347 -78.83227878 27.75440954 -74.1875 29.125 C-70.24996222 31.44119869 -68.03217596 33.93564807 -66 38 C-65.95977609 40.3329866 -65.95679753 42.66706666 -66 45 C-65.14664063 45.25265625 -64.29328125 45.5053125 -63.4140625 45.765625 C-58.60238471 47.50531628 -54.41541691 50.13399558 -50.0234375 52.734375 C-47.16527439 54.30563918 -47.16527439 54.30563918 -44.765625 53.3359375 C-43.27952548 52.21149936 -41.82344184 51.04754815 -40.375 49.875 C-36.69015985 47.82786658 -36.10406951 47.96482064 -32.17578125 48.4609375 C-28.92912191 48.52077556 -27.56155176 48.5162796 -25.140625 46.29052734 C-23.4901652 43.84844664 -22.1335602 41.38447315 -20.8125 38.75 C-20.32458984 37.87730469 -19.83667969 37.00460938 -19.33398438 36.10546875 C-16.72381401 31.72540346 -16.72381401 31.72540346 -16.28393555 26.84472656 C-17.16810971 24.56691546 -18.50920446 22.92561091 -20 21 C-21.62894001 16.11317997 -21.37360657 12.22459932 -19.875 7.3125 C-15.48622066 -0.44101017 -8.15743412 -2.21860563 0 0 Z " fill="#EFF2F4" transform="translate(196,62)"/>
<path d="M0 0 C3.75696109 2.0780261 5.60098525 3.74707276 7.8203125 7.4921875 C9.23656024 12.62608557 9.50636837 16.27566911 7.6328125 21.3046875 C5.29985243 24.92479796 2.66486495 27.19491128 -1.1796875 29.1171875 C-6.104899 29.65754344 -10.04910468 29.66154219 -14.5546875 27.4921875 C-18.79929624 23.65182721 -21.38275601 20.49954476 -21.6796875 14.6796875 C-21.43811482 10.05084319 -20.2526254 6.61616694 -17.1796875 3.1171875 C-12.1389211 -1.19617717 -6.23351448 -2.52468508 0 0 Z " fill="#EEF1F3" transform="translate(89.1796875,142.8828125)"/>
<path d="M0 0 C2.9640585 1.80767693 5.42197673 3.84395345 7 7 C7.41204834 11.63554388 6.87454146 14.30416098 4 18 C0.58071806 20.56446145 -2.8501922 20.29641484 -7 20 C-10.22782994 19.10338057 -10.91132939 18.13147712 -12.8125 15.3125 C-14.27599125 11.23012967 -14.280564 9.14300116 -13 5 C-8.97691409 0.49797529 -6.01378712 -1.07389056 0 0 Z " fill="#5CB4E3" transform="translate(167,115)"/>
<path d="M0 0 C5.57894737 3.15789474 5.57894737 3.15789474 7 6 C7.5811138 13.08958838 7.5811138 13.08958838 5.125 16.9375 C1.8698054 20.09695358 -0.42413238 20.33421243 -4.9609375 20.29296875 C-8.13134567 19.83745033 -9.8192402 18.24684343 -12 16 C-13.60847182 12.78305636 -13.61309149 9.47862778 -13 6 C-9.02999967 1.08973643 -6.29462787 -0.60525268 0 0 Z " fill="#5BB4E3" transform="translate(86,147)"/>
<path d="M0 0 C2.79750031 2.18341487 3.75038246 3.67510688 4.40625 7.15625 C4.68388511 11.32077664 4.32745938 13.48240291 2.0625 17.0625 C-2.07462293 19.67986349 -5.23141903 19.8984283 -10 19 C-13 17.5625 -13 17.5625 -15 15 C-16.04087777 11.91830008 -16.39730171 9.2343717 -16 6 C-12.23498574 -1.11661519 -7.25571248 -1.8300376 0 0 Z " fill="#5BB4E3" transform="translate(121,96)"/>
<path d="M0 0 C3.52877424 2.80492312 4.85768159 4.76657377 5.375 9.25 C5.00196282 12.98037178 4.36173839 15.1265573 1.7578125 17.88671875 C-1.27236989 19.80583426 -4.10649032 19.80867825 -7.6171875 19.578125 C-10.17339121 18.95793131 -11.31597313 18.38138794 -13.125 16.5 C-15.55355511 11.96669713 -15.8055735 10.07511305 -15 5 C-10.4390284 -0.64120172 -7.01449096 -1.83349071 0 0 Z " fill="#5BB4E3" transform="translate(195,67)"/>
<path d="M0 0 C2.475 1.485 2.475 1.485 5 3 C3.62938601 6.66942861 1.96645212 9.93859497 -0.0390625 13.30078125 C-0.61914062 14.27724609 -1.19921875 15.25371094 -1.796875 16.25976562 C-2.40015625 17.26716797 -3.0034375 18.27457031 -3.625 19.3125 C-4.23601562 20.33923828 -4.84703125 21.36597656 -5.4765625 22.42382812 C-6.98119394 24.95113875 -8.4890994 27.47643399 -10 30 C-11.98 29.34 -13.96 28.68 -16 28 C-14.63389423 24.34883905 -12.98495108 21.08486034 -10.99609375 17.734375 C-10.42052734 16.76242188 -9.84496094 15.79046875 -9.25195312 14.7890625 C-8.65318359 13.78617188 -8.05441406 12.78328125 -7.4375 11.75 C-6.83486328 10.73164062 -6.23222656 9.71328125 -5.61132812 8.6640625 C-1.14501232 1.14501232 -1.14501232 1.14501232 0 0 Z " fill="#F8FBFD" transform="translate(103,115)"/>
<path d="M0 0 C2.94422416 0.30457491 3.85920226 0.83492679 5.8125 3.125 C7.36768952 6.89019569 6.99683038 9.08388065 6 13 C4.4375 15.4375 4.4375 15.4375 3 17 C0.05577584 16.69542509 -0.85920226 16.16507321 -2.8125 13.875 C-4.36768952 10.10980431 -3.99683038 7.91611935 -3 4 C-1.4375 1.5625 -1.4375 1.5625 0 0 Z " fill="#F4F8FA" transform="translate(118,187)"/>
<path d="M0 0 C2.29225435 0.11371497 4.58382388 0.24130964 6.875 0.375 C8.15117188 0.44460937 9.42734375 0.51421875 10.7421875 0.5859375 C14 1 14 1 16 3 C15.625 6.625 15.625 6.625 15 10 C11.14984308 10.08953853 7.75848923 9.79126089 4 9 C2.68 9 1.36 9 0 9 C0 6.03 0 3.06 0 0 Z " fill="#3C98C4" transform="translate(89,221)"/>
<path d="M0 0 C7.71484375 -0.09765625 7.71484375 -0.09765625 10 0 C11 1 11 1 11.25 3.375 C11 6 11 6 9.5 7.8125 C9.005 8.204375 8.51 8.59625 8 9 C8.495 9.763125 8.99 10.52625 9.5 11.3125 C11 14 11 14 11 17 C7.59402245 15.86467415 7.46547428 15.51883178 5.9375 12.5 C4.57554472 9.66980932 4.57554472 9.66980932 2 8 C2 10.97 2 13.94 2 17 C1.34 17 0.68 17 0 17 C0 11.39 0 5.78 0 0 Z " fill="#F8FAFC" transform="translate(130,187)"/>
<path d="M0 0 C2.31 0 4.62 0 7 0 C7.33 0.99 7.66 1.98 8 3 C11.465 2.505 11.465 2.505 15 2 C13.02 2.99 13.02 2.99 11 4 C11 5.65 11 7.3 11 9 C12.65 9.33 14.3 9.66 16 10 C16 10.33 16 10.66 16 11 C10.66666667 11 5.33333333 11 0 11 C0 7.37 0 3.74 0 0 Z " fill="#4299C4" transform="translate(104,236)"/>
<path d="M0 0 C4 0 4 0 5.75 1.5 C6.1625 1.995 6.575 2.49 7 3 C7.33 2.01 7.66 1.02 8 0 C8.99 0 9.98 0 11 0 C11 5.61 11 11.22 11 17 C10.34 17 9.68 17 9 17 C8.67 13.04 8.34 9.08 8 5 C7.67 5.66 7.34 6.32 7 7 C6.01 6.67 5.02 6.34 4 6 C3.67 9.3 3.34 12.6 3 16 C2.01 16.33 1.02 16.66 0 17 C0 11.39 0 5.78 0 0 Z " fill="#EBF2F7" transform="translate(210,187)"/>
<path d="M0 0 C0.66 0 1.32 0 2 0 C2.67364661 2.08108685 3.33866798 4.1649671 4 6.25 C4.37125 7.41015625 4.7425 8.5703125 5.125 9.765625 C6 13 6 13 6 17 C5.34 17 4.68 17 4 17 C3.67 16.01 3.34 15.02 3 14 C1.35 13.67 -0.3 13.34 -2 13 C-2.33 14.32 -2.66 15.64 -3 17 C-3.66 16.34 -4.32 15.68 -5 15 C-4.35814255 12.68632778 -3.71172608 10.3741043 -3.0625 8.0625 C-2.78889648 7.0734668 -2.78889648 7.0734668 -2.50976562 6.06445312 C-1.11328125 1.11328125 -1.11328125 1.11328125 0 0 Z " fill="#CFE4EF" transform="translate(199,187)"/>
<path d="M0 0 C0.66 0 1.32 0 2 0 C2.67155349 2.26949102 3.3373963 4.5403961 4 6.8125 C4.37125 8.07707031 4.7425 9.34164062 5.125 10.64453125 C6 14 6 14 6 17 C5.34 17 4.68 17 4 17 C3.67 15.68 3.34 14.36 3 13 C1.35 13 -0.3 13 -2 13 C-2.33 14.32 -2.66 15.64 -3 17 C-3.66 17 -4.32 17 -5 17 C-3.96232949 10.93267948 -2.66038099 5.5626148 0 0 Z " fill="#F2F6F9" transform="translate(71,187)"/>
<path d="M0 0 C3.63 0 7.26 0 11 0 C11 0.66 11 1.32 11 2 C8.36 2 5.72 2 3 2 C3 3.65 3 5.3 3 7 C4.32 7 5.64 7 7 7 C7 7.66 7 8.32 7 9 C5.68 9.33 4.36 9.66 3 10 C2.67 11.65 2.34 13.3 2 15 C4.97 15 7.94 15 11 15 C11 15.66 11 16.32 11 17 C7.37 17 3.74 17 0 17 C0 11.39 0 5.78 0 0 Z " fill="#EEF4F8" transform="translate(178,187)"/>
<path d="M0 0 C0.886875 0.12375 1.77375 0.2475 2.6875 0.375 C2.6875 1.035 2.6875 1.695 2.6875 2.375 C1.73875 2.643125 0.79 2.91125 -0.1875 3.1875 C-3.56517273 4.12486588 -3.56517273 4.12486588 -5.3125 7.375 C-5.39155064 9.70699388 -5.40048769 12.04332622 -5.3125 14.375 C-3.6625 14.375 -2.0125 14.375 -0.3125 14.375 C0.0175 13.385 0.3475 12.395 0.6875 11.375 C-0.3025 11.375 -1.2925 11.375 -2.3125 11.375 C-2.3125 10.715 -2.3125 10.055 -2.3125 9.375 C-0.6625 9.375 0.9875 9.375 2.6875 9.375 C2.8125 12.25 2.8125 12.25 2.6875 15.375 C0.6875 17.375 0.6875 17.375 -2.8125 17.625 C-6.3125 17.375 -6.3125 17.375 -8.3125 15.375 C-9.02499791 11.625011 -9.0502351 7.93595881 -7.40234375 4.44921875 C-5.15450634 1.42078185 -3.75435455 0.42502127 0 0 Z " fill="#F8FAFC" transform="translate(106.3125,186.625)"/>
<path d="M0 0 C3.63 0 7.26 0 11 0 C11 0.66 11 1.32 11 2 C9.68 2 8.36 2 7 2 C7 6.29 7 10.58 7 15 C8.32 15 9.64 15 11 15 C11 15.66 11 16.32 11 17 C7.7 17 4.4 17 1 17 C0.67 16.34 0.34 15.68 0 15 C1.65 15 3.3 15 5 15 C5 10.71 5 6.42 5 2 C3.35 2 1.7 2 0 2 C0 1.34 0 0.68 0 0 Z " fill="#F9FBFC" transform="translate(146,187)"/>
<path d="M0 0 C2.31 0 4.62 0 7 0 C7 3 7 6 7 9 C7.99 10.485 7.99 10.485 9 12 C9 12.99 9 13.98 9 15 C5.61648189 13.87216063 5.47116525 13.54911128 3.9375 10.5625 C2.73980602 8.25850235 1.86847183 6.86847183 0 5 C-0.125 2.375 -0.125 2.375 0 0 Z " fill="#E9F0F5" transform="translate(132,189)"/>
<path d="M0 0 C3.63 0 7.26 0 11 0 C11 1.32 11 2.64 11 4 C10.34 4 9.68 4 9 4 C9 3.34 9 2.68 9 2 C8.34 2 7.68 2 7 2 C7 6.95 7 11.9 7 17 C6.34 17 5.68 17 5 17 C5 12.05 5 7.1 5 2 C4.01 2 3.02 2 2 2 C2 2.66 2 3.32 2 4 C1.34 4 0.68 4 0 4 C0 2.68 0 1.36 0 0 Z " fill="#F8FAFC" transform="translate(162,187)"/>
<path d="M0 0 C1.66611905 -0.042721 3.33382885 -0.04063832 5 0 C6 1 6 1 6.125 4.5 C6 8 6 8 5 9 C3.33382885 9.04063832 1.66611905 9.042721 0 9 C0 6.03 0 3.06 0 0 Z " fill="#B1D3E5" transform="translate(105,237)"/>
<path d="M0 0 C2.05615305 1.69856122 2.97076039 2.923977 3.9375 5.4375 C4 8 4 8 2.0625 10.3125 C1.381875 10.869375 0.70125 11.42625 0 12 C-1.5625 10.3125 -1.5625 10.3125 -3 8 C-2.7434556 4.49389321 -1.9814066 2.9721099 0 0 Z " fill="#6AB6D7" transform="translate(119,189)"/>
<path d="M0 0 C0.66 0 1.32 0 2 0 C2 4.95 2 9.9 2 15 C4.97 15 7.94 15 11 15 C11 15.66 11 16.32 11 17 C7.37 17 3.74 17 0 17 C0 11.39 0 5.78 0 0 Z " fill="#F8FAFC" transform="translate(82,187)"/>
<path d="M0 0 C1.66611905 -0.042721 3.33382885 -0.04063832 5 0 C6 1 6 1 6.0625 4.5625 C6.041875 5.696875 6.02125 6.83125 6 8 C4.02 8.33 2.04 8.66 0 9 C0 6.03 0 3.06 0 0 Z " fill="#B1D3E5" transform="translate(89,221)"/>
<path d="M0 0 C0.66 0 1.32 0 2 0 C2 2.97 2 5.94 2 9 C0.33388095 9.042721 -1.33382885 9.04063832 -3 9 C-4 8 -4 8 -4.0625 5.4375 C-4.041875 4.633125 -4.02125 3.82875 -4 3 C-2.68 2.67 -1.36 2.34 0 2 C0 1.34 0 0.68 0 0 Z " fill="#B4D2E4" transform="translate(159,237)"/>
<path d="M0 0 C2.625 0.1875 2.625 0.1875 5.625 2.1875 C5.295 3.1775 4.965 4.1675 4.625 5.1875 C3.965 5.1875 3.305 5.1875 2.625 5.1875 C2.625 5.8475 2.625 6.5075 2.625 7.1875 C0.975 6.8575 -0.675 6.5275 -2.375 6.1875 C-2.75718767 4.53135343 -3.08895102 2.86292976 -3.375 1.1875 C-2.375 0.1875 -2.375 0.1875 0 0 Z " fill="#8EC0DB" transform="translate(158.375,222.8125)"/>
<path d="M0 0 C0.66 0 1.32 0 2 0 C2.38909985 1.45463481 2.76088029 2.91391207 3.125 4.375 C3.43824219 5.59316406 3.43824219 5.59316406 3.7578125 6.8359375 C3.83773437 7.55007812 3.91765625 8.26421875 4 9 C3.34 9.66 2.68 10.32 2 11 C1.01 11 0.02 11 -1 11 C-2.1875 9.4375 -2.1875 9.4375 -3 7 C-1.625 3.25 -1.625 3.25 0 0 Z " fill="#C8E3EF" transform="translate(71,187)"/>
<path d="M0 0 C0.33 0.66 0.66 1.32 1 2 C2.65 1.67 4.3 1.34 6 1 C8 4 8 4 8 8 C7.34 8 6.68 8 6 8 C5.67 7.01 5.34 6.02 5 5 C3.35 4.67 1.7 4.34 0 4 C-0.33 5.32 -0.66 6.64 -1 8 C-1.66 7.34 -2.32 6.68 -3 6 C-1.125 1.125 -1.125 1.125 0 0 Z " fill="#F4F7FA" transform="translate(197,196)"/>
<path d="M0 0 C2.475 0.495 2.475 0.495 5 1 C5.625 2.875 5.625 2.875 6 5 C5.34 5.66 4.68 6.32 4 7 C3.01 7 2.02 7 1 7 C0.67 7.66 0.34 8.32 0 9 C0 6.03 0 3.06 0 0 Z " fill="#A9D1E4" transform="translate(114,223)"/>
<path d="M0 0 C0.433125 0.598125 0.86625 1.19625 1.3125 1.8125 C3.42869228 4.63629045 3.42869228 4.63629045 6 7 C8.16299211 6.77242269 8.16299211 6.77242269 10 6 C8.515 8.475 8.515 8.475 7 11 C5.1875 10.8125 5.1875 10.8125 3 10 C0.37665094 6.62712264 -0.36372697 4.24348127 0 0 Z " fill="#E9F1F6" transform="translate(114,193)"/>
<path d="M0 0 C1.98 0.99 1.98 0.99 4 2 C4 2.66 4 3.32 4 4 C4.99 4 5.98 4 7 4 C6.67 5.32 6.34 6.64 6 8 C4.33388095 8.042721 2.66617115 8.04063832 1 8 C0 7 0 7 -0.0625 3.4375 C-0.041875 2.303125 -0.02125 1.16875 0 0 Z " fill="#7EBEDD" transform="translate(100,194)"/>
<path d="M0 0 C1.65 0.33 3.3 0.66 5 1 C5 2.65 5 4.3 5 6 C3.125 6.625 3.125 6.625 1 7 C0.34 6.34 -0.32 5.68 -1 5 C-0.625 2.375 -0.625 2.375 0 0 Z " fill="#A8CFE3" transform="translate(131,223)"/>
<path d="M0 0 C1.67542976 0.28604898 3.34385343 0.61781233 5 1 C5 2.98 5 4.96 5 7 C3.35 6.67 1.7 6.34 0 6 C-0.38218767 4.34385343 -0.71395102 2.67542976 -1 1 C-0.67 0.67 -0.34 0.34 0 0 Z " fill="#C3DCEA" transform="translate(98,223)"/>
<path d="M0 0 C1.2065625 0.0309375 1.2065625 0.0309375 2.4375 0.0625 C0.9525 1.5475 0.9525 1.5475 -0.5625 3.0625 C2.4075 3.5575 2.4075 3.5575 5.4375 4.0625 C5.4375 4.7225 5.4375 5.3825 5.4375 6.0625 C2.4675 6.0625 -0.5025 6.0625 -3.5625 6.0625 C-3.605221 4.39638095 -3.60313832 2.72867115 -3.5625 1.0625 C-2.5625 0.0625 -2.5625 0.0625 0 0 Z " fill="#87BEDA" transform="translate(183.5625,195.9375)"/>
<path d="M0 0 C2.33944736 0.28730055 4.6739143 0.61936779 7 1 C6.34 1.66 5.68 2.32 5 3 C3.68 2.67 2.36 2.34 1 2 C1 4.97 1 7.94 1 11 C0.34 11 -0.32 11 -1 11 C-1.02688151 9.35425434 -1.04634123 7.70838587 -1.0625 6.0625 C-1.07410156 5.14597656 -1.08570312 4.22945312 -1.09765625 3.28515625 C-1 1 -1 1 0 0 Z " fill="#61A7CD" transform="translate(113,221)"/>
<path d="M0 0 C2.125 0.375 2.125 0.375 4 1 C4 1.99 4 2.98 4 4 C2.68 4 1.36 4 0 4 C0 4.66 0 5.32 0 6 C1.32 6.33 2.64 6.66 4 7 C2.35 7 0.7 7 -1 7 C-1.625 4.625 -1.625 4.625 -2 2 C-1.34 1.34 -0.68 0.68 0 0 Z " fill="#C7DFEC" transform="translate(132,239)"/>
<path d="M0 0 C2.475 0.495 2.475 0.495 5 1 C5 2.98 5 4.96 5 7 C3.35 6.67 1.7 6.34 0 6 C0 4.02 0 2.04 0 0 Z " fill="#C3DCEA" transform="translate(172,223)"/>
<path d="M0 0 C0.33 0.66 0.66 1.32 1 2 C1.99 2 2.98 2 4 2 C4.33 1.34 4.66 0.68 5 0 C5 1.98 5 3.96 5 6 C3.35 5.67 1.7 5.34 0 5 C0 3.35 0 1.7 0 0 Z " fill="#CDDFEB" transform="translate(180,240)"/>
<path d="M0 0 C0.33 0.66 0.66 1.32 1 2 C1.99 2 2.98 2 4 2 C4.33 1.34 4.66 0.68 5 0 C5 1.98 5 3.96 5 6 C3.35 5.67 1.7 5.34 0 5 C0 3.35 0 1.7 0 0 Z " fill="#CDE0EC" transform="translate(114,240)"/>
<path d="M0 0 C0.33 0.66 0.66 1.32 1 2 C1.99 2.33 2.98 2.66 4 3 C3.01 3 2.02 3 1 3 C1 4.32 1 5.64 1 7 C2.32 6.67 3.64 6.34 5 6 C4.67 6.99 4.34 7.98 4 9 C2.68 8.67 1.36 8.34 0 8 C-1.125 2.25 -1.125 2.25 0 0 Z " fill="#DEEAF2" transform="translate(189,221)"/>
<path d="M0 0 C2.31 0 4.62 0 7 0 C7 0.99 7 1.98 7 3 C4.69 3 2.38 3 0 3 C0 2.01 0 1.02 0 0 Z " fill="#6DB5D6" transform="translate(132,189)"/>
<path d="M0 0 C0.66 0 1.32 0 2 0 C2 1.98 2 3.96 2 6 C2.66 6.33 3.32 6.66 4 7 C2.35 6.67 0.7 6.34 -1 6 C-1.042721 4.33388095 -1.04063832 2.66617115 -1 1 C-0.67 0.67 -0.34 0.34 0 0 Z " fill="#3797C4" transform="translate(182,224)"/>
<path d="M0 0 C1.32 0.66 2.64 1.32 4 2 C4 2.66 4 3.32 4 4 C3.01 4 2.02 4 1 4 C1 6.64 1 9.28 1 12 C0.34 11.67 -0.32 11.34 -1 11 C-0.67 7.37 -0.34 3.74 0 0 Z " fill="#63B3D6" transform="translate(213,192)"/>
<path d="M0 0 C0.99 0 1.98 0 3 0 C3.33 2.31 3.66 4.62 4 7 C2.68 7 1.36 7 0 7 C0 4.69 0 2.38 0 0 Z " fill="#D1E0EC" transform="translate(164,223)"/>
<path d="M0 0 C1.98 0.99 1.98 0.99 4 2 C3.01 2.495 3.01 2.495 2 3 C2 4.65 2 6.3 2 8 C1.34 8 0.68 8 0 8 C0 5.36 0 2.72 0 0 Z " fill="#73B7D7" transform="translate(132,195)"/>
<path d="M0 0 C0.99 0 1.98 0 3 0 C3.33 2.31 3.66 4.62 4 7 C2.68 6.67 1.36 6.34 0 6 C0 4.02 0 2.04 0 0 Z " fill="#D4E2ED" transform="translate(164,239)"/>
<path d="M0 0 C0.33 0.66 0.66 1.32 1 2 C1.99 2.33 2.98 2.66 4 3 C3.01 3 2.02 3 1 3 C1 4.65 1 6.3 1 8 C1.99 7.67 2.98 7.34 4 7 C4 7.66 4 8.32 4 9 C2.68 9 1.36 9 0 9 C-1.125 2.25 -1.125 2.25 0 0 Z " fill="#E4EEF4" transform="translate(173,237)"/>
<path d="M0 0 C1.65 0 3.3 0 5 0 C5.33 0.99 5.66 1.98 6 3 C4.35 2.67 2.7 2.34 1 2 C1 3.65 1 5.3 1 7 C0.67 7 0.34 7 0 7 C0 4.69 0 2.38 0 0 Z " fill="#D2E2ED" transform="translate(139,239)"/>
<path d="M0 0 C0.99 0 1.98 0 3 0 C3 1.65 3 3.3 3 5 C3.66 5 4.32 5 5 5 C5 5.66 5 6.32 5 7 C3.35 7 1.7 7 0 7 C0 6.34 0 5.68 0 5 C0.66 5 1.32 5 2 5 C2 3.68 2 2.36 2 1 C1.34 0.67 0.68 0.34 0 0 Z " fill="#D6E4EE" transform="translate(147,223)"/>
<path d="M0 0 C0.66 0.33 1.32 0.66 2 1 C2 2.98 2 4.96 2 7 C1.01 7 0.02 7 -1 7 C-1.33 5.02 -1.66 3.04 -2 1 C-1.34 0.67 -0.68 0.34 0 0 Z " fill="#3A98C4" transform="translate(187,222)"/>
</svg>
